<?xml version="1.0" encoding="UTF-8"?>
<svg id="Layer_1" xmlns="http://www.w3.org/2000/svg" version="1.1" viewBox="0 0 800 800">
  <!-- Generator: Adobe Illustrator 30.1.0, SVG Export Plug-In . SVG Version: 2.1.1 Build 136)  -->
  <defs>
    <style>
      .st0 {
        fill: #ff8d28;
      }

      .st1 {
        fill: #fff;
        fill-opacity: .35;
      }
    </style>
  </defs>
  <path class="st1" d="M600,50c-13.28,0-25.98,5.27-35.35,14.65-19.53,19.53-19.53,51.17,0,70.7l64.65,64.65H250c-27.54,0-50,22.46-50,50s22.46,50,50,50h379.3l-51.56,51.56c7.42-.78,14.84-1.37,22.27-1.56,34.38,0,68.36,7.23,99.8,20.9l85.55-85.55c19.53-19.53,19.53-51.17,0-70.7l-150-150c-9.38-9.38-22.07-14.65-35.35-14.65h0ZM200,350c-12.89,0-25.59,4.88-35.35,14.65L14.65,514.65c-19.53,19.53-19.53,51.17,0,70.7l150,150c9.38,9.38,22.07,14.65,35.35,14.65s25.98-5.27,35.35-14.65c19.53-19.53,19.53-51.17,0-70.7l-64.65-64.65h179.3c.2-34.38,7.23-68.55,21.29-100h-200.59l64.65-64.65c19.53-19.53,19.53-51.17,0-70.7-9.77-9.77-22.46-14.65-35.35-14.65Z"/>
  <path class="st0" d="M600,400c-110.55,0-200,89.45-200,200s89.45,200,200,200,200-89.45,200-200-89.45-200-200-200ZM500,550h200c27.73,0,50,22.27,50,50s-22.27,50-50,50h-200c-27.73,0-50-22.27-50-50s22.27-50,50-50Z"/>
</svg>