<?xml version="1.0" encoding="UTF-8"?>
<svg width="1024px" height="1024px" viewBox="0 0 1024 1024" version="1.1" xmlns="http://www.w3.org/2000/svg" xmlns:xlink="http://www.w3.org/1999/xlink">
    <title>AppIcon</title>
    <g id="AppIcon" stroke="none" fill="none">
        <path d="M459.549872,51.5524291 C477.074737,49.5508097 494.72478,48.55 512.5,48.55 C530.27522,48.55 547.925263,49.5508097 565.450128,51.5524291 L584.977835,147.630162 C613.518329,153.134615 641.307758,162.141903 668.346121,174.652024 L737.44416,110.850405 C768.488207,129.365385 797.028701,151.633401 823.065644,177.654453 L785.512361,259.470648 C805.540779,280.988057 822.564933,304.507085 836.584825,330.027733 L920.704177,320.269838 C935.72549,354.797773 946.490764,390.576721 953,427.60668 L881.648764,467.388866 C883.651606,482.401012 884.653026,497.162955 884.653026,511.674696 C884.653026,526.186437 883.651606,540.698178 881.648764,555.209919 L953,595.742713 C946.490764,632.772672 935.72549,668.551619 920.704177,703.079555 L836.584825,693.32166 C822.564933,718.842308 805.540779,742.361336 785.512361,763.878745 L823.065644,845.694939 C797.028701,871.715992 768.488207,893.984008 737.44416,912.498988 L668.346121,849.447976 C641.307758,861.457692 613.518329,870.46498 584.977835,876.469838 L565.450128,971.796964 C547.925263,974.298988 530.27522,975.55 512.5,975.55 C494.72478,975.55 477.074737,974.298988 459.549872,971.796964 L440.022165,876.469838 C410.980961,870.46498 383.191532,861.457692 356.653879,849.447976 L287.55584,912.498988 C256.511793,893.984008 227.971299,871.715992 201.934356,845.694939 L239.487639,763.878745 C219.459221,742.361336 202.435067,718.842308 188.415175,693.32166 L104.295823,703.079555 C89.2745098,668.551619 78.5092356,632.772672 72,595.742713 L143.351236,555.209919 C141.348394,540.698178 140.346974,526.186437 140.346974,511.674696 C140.346974,497.162955 141.348394,482.401012 143.351236,467.388866 L72,427.60668 C78.5092356,390.576721 89.2745098,354.797773 104.295823,320.269838 L188.415175,330.027733 C202.435067,304.507085 219.459221,280.737854 239.487639,258.72004 L201.934356,177.654453 C227.971299,151.633401 256.511793,129.365385 287.55584,110.850405 L356.653879,173.901417 C383.191532,161.8917 410.980961,153.134615 440.022165,147.630162 L459.549872,51.5524291 Z M701.393009,322.52166 C649.319125,269.97915 586.354788,243.707895 512.5,243.707895 C438.645212,243.707895 375.555698,269.97915 323.231458,322.52166 C270.907218,375.06417 244.745098,438.240283 244.745098,512.05 C244.745098,585.859717 270.907218,648.785628 323.231458,700.827733 C375.555698,752.869838 438.645212,778.890891 512.5,778.890891 C586.354788,778.890891 649.444302,752.869838 701.768542,700.827733 C754.092782,648.785628 780.254902,585.859717 780.254902,512.05 C780.254902,438.240283 753.967604,375.06417 701.393009,322.52166 Z" id="Gear" fill="#DDDDDD" fill-rule="nonzero"></path>
        <g id="􀙇" stroke-width="1" fill-rule="evenodd" transform="translate(261.5, 346.25)" fill="#D2D2D2">
            <path d="M250.88911,390 C248.417706,390 245.946301,389.21781 243.474896,387.65343 C241.003492,386.089049 237.659827,383.116727 233.443901,378.736462 L180.454077,323.826715 C178.709556,322.105897 177.655575,320.22864 177.292133,318.194946 C176.928691,316.161252 177.255789,314.205776 178.273426,312.32852 C185.396887,302.160048 195.355194,293.243081 208.148347,285.577617 C220.941501,277.912154 235.188422,274.079422 250.88911,274.079422 C266.153669,274.079422 280.14618,277.755716 292.866646,285.108303 C305.587111,292.46089 315.509074,301.064982 322.632534,310.920578 C324.231678,312.954272 324.84953,315.183514 324.486088,317.608303 C324.122646,320.033093 323.141353,322.105897 321.542209,323.826715 L268.33432,378.736462 C264.118394,383.273165 260.774729,386.284597 258.303324,387.770758 C255.83192,389.256919 253.360515,390 250.88911,390 Z M123.321016,262.34657 L89.520923,225.974729 C87.6310253,223.941035 86.6497323,221.750903 86.5770439,219.404332 C86.5043555,217.057762 87.2675834,214.867629 88.8667276,212.833935 C99.9153603,198.285199 113.726151,185.300842 130.2991,173.880866 C146.872049,162.46089 165.443928,153.426594 186.014738,146.777978 C206.585547,140.129362 228.210338,136.805054 250.88911,136.805054 C273.567883,136.805054 295.192673,140.129362 315.763483,146.777978 C336.334292,153.426594 354.942516,162.46089 371.588153,173.880866 C388.233791,185.300842 402.008237,198.285199 412.911493,212.833935 C414.510637,214.867629 415.237521,217.096871 415.092144,219.521661 C414.946767,221.94645 414.001819,224.097473 412.257298,225.974729 L378.457204,262.111913 C376.131176,264.458484 373.696116,265.631769 371.152023,265.631769 C368.60793,265.631769 366.318246,264.458484 364.282972,262.111913 C350.908311,246.468111 334.189985,233.444645 314.127995,223.041516 C294.066004,212.638387 272.986376,207.515042 250.88911,207.67148 C229.082599,207.515042 208.148347,212.521059 188.086356,222.689531 C168.024365,232.858002 151.451417,245.76414 138.367509,261.407942 C136.186858,263.910951 133.715454,265.279783 130.953295,265.51444 C128.191137,265.749097 125.647044,264.693141 123.321016,262.34657 Z M32.8239923,164.259928 L2.731006,131.407942 C0.986485058,129.21781 0.0778803993,126.949458 0.00519202662,124.602888 C-0.0674963461,122.256318 0.623043194,120.066185 2.07681065,118.032491 C19.0858899,95.3489771 40.6016482,75.0902527 66.6240856,57.2563177 C92.646523,39.4223827 121.431119,25.4211793 152.977872,15.2527076 C184.524626,5.08423586 217.161705,0 250.88911,0 C284.616515,0 317.253595,5.12334537 348.800348,15.3700361 C380.347102,25.6167268 409.131698,39.6179302 435.154135,57.3736462 C461.176573,75.1293622 482.692331,95.3489771 499.70141,118.032491 C501.300554,120.066185 502.063782,122.256318 501.995834,124.602888 C501.918405,126.949458 500.937112,129.21781 499.047215,131.407942 L468.954228,163.790614 C466.773577,166.137184 464.374861,167.349579 461.758079,167.427798 C459.141298,167.506017 456.81527,166.45006 454.779996,164.259928 C428.176051,133.598075 397.501558,110.288809 362.756516,94.33213 C328.011474,78.3754513 290.722339,70.3971119 250.88911,70.3971119 C211.346636,70.3971119 174.239221,78.3363418 139.566868,94.2148014 C104.894514,110.093261 74.1836763,133.363418 47.4343552,164.025271 C45.3990808,166.371841 43.0003645,167.584236 40.2382063,167.662455 C37.4760481,167.740674 35.0046435,166.606498 32.8239923,164.259928 Z" id="Shape" fill-rule="nonzero"></path>
        </g>
    </g>
</svg>